<svg height='100px' width='100px'  fill="#000000" xmlns="http://www.w3.org/2000/svg" xmlns:xlink="http://www.w3.org/1999/xlink" version="1.1" x="0px" y="0px" viewBox="0 0 48 48" enable-background="new 0 0 48 48" xml:space="preserve"><path d="M16,8c-1.1,0-2,0.9-2,2v3h4v-3C18,8.9,17.1,8,16,8z"></path><path d="M34,13v2c0,1.1-0.9,2-2,2s-2-0.9-2-2v-2H18v2c0,1.1-0.9,2-2,2s-2-0.9-2-2v-2H8v27h32V13H34z M36,36H12V19h24V36z"></path><path d="M32,8c-1.1,0-2,0.9-2,2v3h4v-3C34,8.9,33.1,8,32,8z"></path><polygon points="22,33.8 16.6,28.4 19.4,25.6 22,28.2 28.6,21.6 31.4,24.4 "></polygon></svg>