<svg height='100px' width='100px'  fill="#000000" xmlns="http://www.w3.org/2000/svg" xmlns:xlink="http://www.w3.org/1999/xlink" version="1.1" x="0px" y="0px" viewBox="0 0 48 48" enable-background="new 0 0 48 48" xml:space="preserve"><path d="M24,30c-7.2,0-13,2.2-13,5s5.8,5,13,5s13-2.2,13-5S31.2,30,24,30z M24,37c-5,0-9-0.9-9-2c0-1.1,4-2,9-2s9,0.9,9,2  C33,36.1,29,37,24,37z"></path><path d="M24,8c-5,0-9,4-9,9c0,5,9,19,9,19s9-14,9-19C33,12,29,8,24,8z M24,21c-2.2,0-4-1.8-4-4c0-2.2,1.8-4,4-4s4,1.8,4,4  C28,19.2,26.2,21,24,21z"></path></svg>